<?xml version="1.0" encoding="utf-8"?>
<!-- Generator: Adobe Illustrator 24.2.1, SVG Export Plug-In . SVG Version: 6.00 Build 0)  -->
<svg version="1.1" id="レイヤー_1" xmlns="http://www.w3.org/2000/svg" xmlns:xlink="http://www.w3.org/1999/xlink" x="0px"
	 y="0px" viewBox="0 0 150 16" style="enable-background:new 0 0 150 16;" xml:space="preserve">
<style type="text/css">
	.st0{fill:#040000;}
	.st1{enable-background:new    ;}
</style>
<g id="グループ_6" transform="translate(-12 46)">
	<path id="パス_1" class="st0" d="M20.2-30.6c-4.1,0-7.4-3.3-7.4-7.4s3.3-7.4,7.4-7.4s7.4,3.3,7.4,7.4l0,0
		C27.7-33.9,24.4-30.6,20.2-30.6z M20.2-45.8c-4.3,0-7.8,3.5-7.8,7.8c0,4.3,3.5,7.8,7.8,7.8c4.3,0,7.8-3.5,7.8-7.8c0,0,0,0,0,0
		C28-42.3,24.5-45.8,20.2-45.8"/>
	<path id="パス_2" class="st0" d="M21.8-34c-1.3-0.7-1.7-2.4-1-3.7c0.7-1.3,2.4-1.7,3.7-1c1.3,0.7,1.7,2.4,1,3.7
		C24.8-33.7,23.1-33.2,21.8-34C21.8-34,21.8-34,21.8-34z M17.5-41.4c0-1.5,1.2-2.7,2.7-2.7c1.5,0,2.7,1.2,2.7,2.7
		c0,1.5-1.2,2.7-2.7,2.7C18.8-38.7,17.5-39.9,17.5-41.4C17.5-41.4,17.5-41.4,17.5-41.4 M18.7-34c-1.3,0.7-3,0.3-3.7-1s-0.3-3,1-3.7
		c1.3-0.7,2.9-0.3,3.7,1C20.4-36.4,20-34.7,18.7-34C18.7-34,18.7-34,18.7-34 M20.2-44.8c-3.7,0-6.8,3-6.8,6.8c0,3.7,3,6.8,6.8,6.8
		c3.7,0,6.8-3,6.8-6.8c0,0,0,0,0,0C27-41.7,24-44.8,20.2-44.8"/>
	<g class="st1">
		<path class="st0" d="M38.1-41.9c-0.1,0.4-0.3,0.8-0.6,1.5h7.6v2.2h-2.3c-0.2,0.5-0.5,1.7-1.6,3c2.1,0.8,3,1.2,3.6,1.6l-1.5,2.1
			c-0.7-0.4-1.9-1.2-4-2c-0.3,0.2-0.5,0.3-0.8,0.4c-2.9,1.3-5.5,1.5-6.6,1.6l-0.8-2.4c2.1,0,3.7-0.2,5.2-0.7c-2-0.7-3.5-1-4.4-1.2
			c0.4-0.4,0.9-1,1.7-2.4h-2.8v-2.2h4c0.4-0.9,0.6-1.4,0.8-1.8L38.1-41.9z M31.2-44.5h5.6v-1.1h2.4v1.1h5.6v3.7h-2.3v-1.6h-8.8v1.6
			h-2.3V-44.5z M36.4-38.2c-0.3,0.5-0.6,0.9-0.8,1.3c1,0.3,2.1,0.6,3.2,0.9c0.9-0.9,1.3-1.7,1.5-2.2H36.4z"/>
		<path class="st0" d="M48.1-44.9h13.1v13.3h-2.3v-0.7h-8.5v0.7h-2.3V-44.9z M50.3-42.8v3.1h3.1v-3.1H50.3z M50.3-37.6v3.2h3.1v-3.2
			H50.3z M55.6-42.8v3.1h3.2v-3.1H55.6z M55.6-37.6v3.2h3.2v-3.2H55.6z"/>
		<path class="st0" d="M64.6-45.2h6.1v5.3h-4.1v8.5h-2V-45.2z M66.7-43.7v0.7h2.1v-0.7H66.7z M66.7-41.9v0.7h2.1v-0.7H66.7z
			 M68.7-36.6v-1h-1.3v-1.8h7.7v1.8H74v1h1.3v1.8H74v3.1h-2v-3.1h-1.4c-0.4,2-1.3,2.7-1.9,3.2L67.1-33c0.5-0.3,1.1-0.8,1.4-1.8h-1.3
			v-1.8H68.7z M72-36.6v-1h-1.3v1H72z M71.7-45.2h6.2v12.3c0,0.3,0,1.5-1.3,1.5h-1.9l-0.5-2.1h1.2c0.3,0,0.4-0.1,0.4-0.3v-6h-4.1
			V-45.2z M73.8-43.7v0.7h2v-0.7H73.8z M73.8-41.9v0.7h2v-0.7H73.8z"/>
		<path class="st0" d="M83.4-39.6c-0.6,0.3-1,0.5-1.9,0.9l-1-2.2c0.6-0.2,1.1-0.3,1.9-0.7c-0.9-0.8-1-1-1.4-1.2l1.1-1v-1.5h6.7
			c0.3,0.5,0.5,0.7,0.9,1.1c0.8-0.8,1.1-1.1,1.5-1.5l1.6,0.9c-0.3,0.3-0.7,0.8-1.8,1.9c0.3,0.2,0.4,0.3,0.6,0.4c1-1,1.4-1.4,1.8-1.9
			l1.6,1c-0.4,0.5-0.9,1.1-1.7,1.8c0.5,0.3,0.9,0.4,1.8,0.8l-0.9,2.1c-0.5-0.2-1-0.4-1.9-0.9v0.7h-1.6v1.2h3.9v2h-3.9v1.6
			c0,0.4,0.1,0.5,0.4,0.5h1c0.4,0,0.6,0,0.6-1.6l2.2,0.4c-0.1,1.1-0.2,2.2-0.5,2.8c-0.2,0.2-0.6,0.6-1.1,0.6h-3.7
			c-0.8,0-1.2-0.6-1.2-1.2v-3h-1.7c-0.4,1.9-1.5,3.5-4.9,4.4l-1.2-2.2c1.8-0.3,3.3-1,3.8-2.2h-3.4v-2h3.7v-1.2h-1.4V-39.6z
			 M83.1-43.6c0.5,0.4,0.8,0.6,1.2,1c0.6-0.4,0.9-0.6,1.3-1H83.1z M90.4-40.9c-1.4-1-2.1-1.8-2.5-2.3c-0.4,0.5-1.1,1.3-2.5,2.3H90.4
			z M87-38.9v1.2h1.5v-1.2H87z"/>
		<path class="st0" d="M106.2-43.7v-1.9h2.1v1.9h3v2.1h-3v1.4h3.3v2.1H109c1.1,1.9,2.3,2.8,2.9,3.2l-0.9,2.5c-1.2-0.9-2-2.1-2.7-3.5
			v4.3h-2.1v-4.7c-0.7,1.5-1.6,2.8-2.8,3.9l-1.3-2.1c0.6-0.4,2.1-1.4,3.4-3.7h-2.7c0.3,0.4,0.5,0.5,0.7,0.8l-1.3,1.7
			c-0.6-1.2-0.7-1.5-0.9-2.1v6.3h-2.1v-5.7c-0.5,1.7-1,2.6-1.4,3.1l-0.7-3c0.6-0.8,1.3-1.8,2-4.1h-1.7v-2.1h1.8v-2.5h2.1v2.5h1.4
			v0.9c0.3-0.5,0.8-1.6,1-3.1l2,0.2c-0.1,0.4-0.1,0.8-0.3,1.4H106.2z M103.9-40.2l-1.2-0.9h-1.4v0.7c0.4,1,1.2,2,1.4,2.3v-2.1H103.9
			z M106.2-40.2v-1.4h-1.4c-0.3,0.6-0.5,1.1-0.8,1.4H106.2z"/>
		<path class="st0" d="M114-34.1c0.3,0,0.4,0,0.6,0c0.3,0,1.8-0.1,2.2-0.2v-3.6h-2.4v-2.2h7v2.2h-2.3v3.4c1.7-0.2,2.3-0.3,2.9-0.4
			l0,2.1c-1.7,0.4-2.7,0.5-7.7,1L114-34.1z M126.9-43.6h1.4v2.2h-4.2c0.1,1.9,0.3,3.8,0.9,5.6c0.2,0.5,0.6,1.5,1,1.5
			c0.4,0,1.2-1,1.6-2l1,2.4c-0.3,0.9-1.1,2.5-2.5,2.5c-0.7,0-1.4-0.4-1.8-0.8c-2.2-2.4-2.3-6.8-2.4-9.2h-7.7v-2.2h7.6
			c0-0.2,0-1.3-0.1-1.6c0-0.1,0-0.3,0-0.5h2.4c0,1.2,0,1.5,0,2.1h1.5c-0.4-0.6-0.7-1-1.1-1.4l1.9-0.8c0.2,0.2,0.4,0.3,1.5,1.8
			L126.9-43.6z"/>
		<path class="st0" d="M133.9-40.6c-1.2,0.7-1.8,1-2.3,1.1l-1.1-2.3c3.5-1.4,5.1-2.6,6.1-3.9h2.7c1.6,1.8,3.7,3.1,6,3.9l-1.2,2.3
			c-0.5-0.2-1.2-0.5-2.2-1.2v0.9h-8V-40.6z M142.5-31.3c-0.2-0.4-0.3-0.6-0.6-1.1c-6.4,0.5-6.9,0.6-10.3,0.7l-0.4-2.3
			c0.3,0,0.4,0,0.5,0c0.2,0,1.4,0,1.7,0c0.4-0.8,0.7-1.6,1-2.6h-3.3v-2.2h13.5v2.2h-3.1c1.3,1.4,2.2,2.7,3.2,4.2L142.5-31.3z
			 M140.2-41.8c-1.3-1-1.9-1.6-2.3-2.1c-0.4,0.5-0.9,1-2.3,2.1H140.2z M141.1-36.6h-4.2c-0.4,1-0.7,1.7-1.2,2.6c1.1,0,1.2,0,1.5,0
			c0.5,0,2.9-0.1,3.4-0.1c-0.6-0.8-0.9-1.1-1.2-1.6L141.1-36.6z"/>
		<path class="st0" d="M151.6-31.4h-2.3v-5c-0.6,0.5-1,0.8-1.6,1.2l-0.6-2.7c1.7-1,3.1-2.6,3.6-3.6h-3.3v-2.1h1.9v-2.1h2.3v2.1h1.5
			v2.1c-0.2,0.5-0.5,1.2-1.2,2.2c0.8,0.9,1.6,1.4,2,1.6l-1.1,2.1c-0.4-0.4-0.8-0.8-1.3-1.4V-31.4z M156.1-45.6h2.3v3.7h2.9v2.3h-2.9
			v5.5h3.1v2.3h-8.9v-2.3h3.4v-5.5h-2.7v-2.3h2.7V-45.6z"/>
	</g>
</g>
</svg>
